<svg width="687" height="296" viewBox="0 0 687 296" fill="none" xmlns="http://www.w3.org/2000/svg">
<path d="M363.04 127.8C358.027 127.8 353.627 126.947 349.84 125.24C346.053 123.533 342.88 121.24 340.32 118.36C337.813 115.427 335.92 112.173 334.64 108.6C333.413 104.973 332.8 101.267 332.8 97.48C332.8 93.6933 333.44 89.9867 334.72 86.36C336 82.7333 337.893 79.48 340.4 76.6C342.96 73.6667 346.16 71.3467 350 69.64C353.84 67.88 358.32 67 363.44 67C367.493 67 370.96 67.5067 373.84 68.52C376.72 69.5333 379.12 70.84 381.04 72.44C383.013 74.04 384.587 75.7467 385.76 77.56C386.987 79.32 387.893 81 388.48 82.6C389.12 84.1467 389.52 85.4267 389.68 86.44C389.893 87.4533 390 87.96 390 87.96H376.24C376.24 87.96 376.08 87.5333 375.76 86.68C375.493 85.7733 374.907 84.7333 374 83.56C373.147 82.3867 371.867 81.3733 370.16 80.52C368.453 79.6133 366.213 79.16 363.44 79.16C359.813 79.16 356.773 80.04 354.32 81.8C351.92 83.56 350.107 85.8267 348.88 88.6C347.653 91.3733 347.04 94.2533 347.04 97.24C347.04 100.333 347.653 103.293 348.88 106.12C350.16 108.893 352.027 111.187 354.48 113C356.933 114.813 359.973 115.72 363.6 115.72C367.44 115.72 370.48 114.787 372.72 112.92C375.013 111.053 376.427 108.573 376.96 105.48H362.32V94.68H390.64V99.4C390.64 105.64 389.44 110.867 387.04 115.08C384.693 119.293 381.44 122.467 377.28 124.6C373.12 126.733 368.373 127.8 363.04 127.8ZM426.638 127.8C421.571 127.8 417.144 126.947 413.358 125.24C409.571 123.48 406.398 121.16 403.838 118.28C401.331 115.347 399.438 112.067 398.158 108.44C396.878 104.813 396.238 101.107 396.238 97.32C396.238 93.5333 396.878 89.8533 398.158 86.28C399.438 82.6533 401.331 79.4 403.838 76.52C406.398 73.64 409.571 71.3467 413.358 69.64C417.144 67.88 421.571 67 426.638 67C431.651 67 436.051 67.88 439.838 69.64C443.624 71.3467 446.771 73.64 449.278 76.52C451.838 79.4 453.758 82.6533 455.038 86.28C456.318 89.8533 456.958 93.5333 456.958 97.32C456.958 101.107 456.318 104.813 455.038 108.44C453.758 112.067 451.838 115.347 449.278 118.28C446.771 121.16 443.624 123.48 439.838 125.24C436.051 126.947 431.651 127.8 426.638 127.8ZM426.638 115.4C430.104 115.4 433.011 114.52 435.358 112.76C437.758 111 439.544 108.76 440.718 106.04C441.944 103.267 442.558 100.36 442.558 97.32C442.558 94.3333 441.944 91.48 440.718 88.76C439.544 85.9867 437.758 83.72 435.358 81.96C433.011 80.2 430.104 79.32 426.638 79.32C423.118 79.32 420.158 80.2 417.758 81.96C415.411 83.72 413.651 85.9867 412.478 88.76C411.304 91.48 410.718 94.3333 410.718 97.32C410.718 100.36 411.304 103.267 412.478 106.04C413.651 108.76 415.411 111 417.758 112.76C420.158 114.52 423.118 115.4 426.638 115.4ZM492.966 127.8C487.899 127.8 483.472 126.947 479.686 125.24C475.899 123.48 472.726 121.16 470.166 118.28C467.659 115.347 465.766 112.067 464.486 108.44C463.206 104.813 462.566 101.107 462.566 97.32C462.566 93.5333 463.206 89.8533 464.486 86.28C465.766 82.6533 467.659 79.4 470.166 76.52C472.726 73.64 475.899 71.3467 479.686 69.64C483.472 67.88 487.899 67 492.966 67C497.979 67 502.379 67.88 506.166 69.64C509.952 71.3467 513.099 73.64 515.606 76.52C518.166 79.4 520.086 82.6533 521.366 86.28C522.646 89.8533 523.286 93.5333 523.286 97.32C523.286 101.107 522.646 104.813 521.366 108.44C520.086 112.067 518.166 115.347 515.606 118.28C513.099 121.16 509.952 123.48 506.166 125.24C502.379 126.947 497.979 127.8 492.966 127.8ZM492.966 115.4C496.432 115.4 499.339 114.52 501.686 112.76C504.086 111 505.872 108.76 507.046 106.04C508.272 103.267 508.886 100.36 508.886 97.32C508.886 94.3333 508.272 91.48 507.046 88.76C505.872 85.9867 504.086 83.72 501.686 81.96C499.339 80.2 496.432 79.32 492.966 79.32C489.446 79.32 486.486 80.2 484.086 81.96C481.739 83.72 479.979 85.9867 478.806 88.76C477.632 91.48 477.046 94.3333 477.046 97.32C477.046 100.36 477.632 103.267 478.806 106.04C479.979 108.76 481.739 111 484.086 112.76C486.486 114.52 489.446 115.4 492.966 115.4ZM531.214 127V67.8H554.654C559.507 67.8 563.774 68.6533 567.454 70.36C571.134 72.0133 574.174 74.2533 576.574 77.08C579.027 79.9067 580.867 83.08 582.094 86.6C583.32 90.12 583.934 93.72 583.934 97.4C583.934 101.08 583.32 104.68 582.094 108.2C580.867 111.72 579.027 114.893 576.574 117.72C574.174 120.547 571.134 122.813 567.454 124.52C563.774 126.173 559.507 127 554.654 127H531.214ZM554.014 79.96H545.054V114.68H554.014C557.694 114.68 560.707 113.827 563.054 112.12C565.454 110.413 567.214 108.253 568.334 105.64C569.454 102.973 570.014 100.173 570.014 97.24C570.014 94.4133 569.454 91.6667 568.334 89C567.214 86.3333 565.454 84.1733 563.054 82.52C560.707 80.8133 557.694 79.96 554.014 79.96ZM363.04 228.8C358.027 228.8 353.627 227.947 349.84 226.24C346.053 224.533 342.88 222.24 340.32 219.36C337.813 216.427 335.92 213.173 334.64 209.6C333.413 205.973 332.8 202.267 332.8 198.48C332.8 194.693 333.44 190.987 334.72 187.36C336 183.733 337.893 180.48 340.4 177.6C342.96 174.667 346.16 172.347 350 170.64C353.84 168.88 358.32 168 363.44 168C367.493 168 370.96 168.507 373.84 169.52C376.72 170.533 379.12 171.84 381.04 173.44C383.013 175.04 384.587 176.747 385.76 178.56C386.987 180.32 387.893 182 388.48 183.6C389.12 185.147 389.52 186.427 389.68 187.44C389.893 188.453 390 188.96 390 188.96H376.24C376.24 188.96 376.08 188.533 375.76 187.68C375.493 186.773 374.907 185.733 374 184.56C373.147 183.387 371.867 182.373 370.16 181.52C368.453 180.613 366.213 180.16 363.44 180.16C359.813 180.16 356.773 181.04 354.32 182.8C351.92 184.56 350.107 186.827 348.88 189.6C347.653 192.373 347.04 195.253 347.04 198.24C347.04 201.333 347.653 204.293 348.88 207.12C350.16 209.893 352.027 212.187 354.48 214C356.933 215.813 359.973 216.72 363.6 216.72C367.44 216.72 370.48 215.787 372.72 213.92C375.013 212.053 376.427 209.573 376.96 206.48H362.32V195.68H390.64V200.4C390.64 206.64 389.44 211.867 387.04 216.08C384.693 220.293 381.44 223.467 377.28 225.6C373.12 227.733 368.373 228.8 363.04 228.8ZM395.438 228L415.358 168.8H433.918L453.838 228H439.358L435.918 217.2H413.358L409.918 228H395.438ZM417.198 205.36H432.158L424.638 182.08L417.198 205.36ZM460.979 228V168.8H486.019C490.393 168.8 494.206 169.547 497.459 171.04C500.713 172.533 503.219 174.667 504.979 177.44C506.739 180.213 507.619 183.52 507.619 187.36C507.619 191.307 506.659 194.693 504.739 197.52C502.873 200.347 500.233 202.48 496.819 203.92L509.059 228H493.779L482.819 205.84H474.819V228H460.979ZM485.859 180.72H474.819V194.72H485.859C488.259 194.72 490.179 194.08 491.619 192.8C493.059 191.52 493.779 189.84 493.779 187.76C493.779 185.627 493.059 183.92 491.619 182.64C490.179 181.36 488.259 180.72 485.859 180.72ZM519.026 228V168.8H542.466C547.32 168.8 551.586 169.653 555.266 171.36C558.946 173.013 561.986 175.253 564.386 178.08C566.84 180.907 568.68 184.08 569.906 187.6C571.133 191.12 571.746 194.72 571.746 198.4C571.746 202.08 571.133 205.68 569.906 209.2C568.68 212.72 566.84 215.893 564.386 218.72C561.986 221.547 558.946 223.813 555.266 225.52C551.586 227.173 547.32 228 542.466 228H519.026ZM541.826 180.96H532.866V215.68H541.826C545.506 215.68 548.52 214.827 550.866 213.12C553.266 211.413 555.026 209.253 556.146 206.64C557.266 203.973 557.826 201.173 557.826 198.24C557.826 195.413 557.266 192.667 556.146 190C555.026 187.333 553.266 185.173 550.866 183.52C548.52 181.813 545.506 180.96 541.826 180.96ZM579.651 228V168.8H621.491V180.8H593.491V192.24H617.891V203.68H593.491V216H621.891V228H579.651ZM631.604 228V168.8H644.324L668.004 204.08V168.8H681.684V228H668.884L645.364 194.08V228H631.604Z" fill="white"/>
<circle cx="147.701" cy="147.701" r="147.701" fill="white"/>
<g clip-path="url(#clip0_960_261)">
<path d="M211.276 118.675C205.337 113.615 201.931 106.251 201.931 98.4712C201.931 68.8399 177.694 44.7334 147.902 44.7334C118.111 44.7334 93.8735 68.8399 93.8735 98.4712C93.8735 106.251 90.4677 113.615 84.5291 118.675C72.6251 128.819 65.7889 143.571 65.7744 159.149C65.7611 173.145 71.2114 186.4 81.1213 196.473C91.0207 206.536 104.21 212.239 118.258 212.533C125.705 212.687 133.054 211.297 139.842 208.518V243.012C139.842 247.463 143.451 251.072 147.902 251.072C152.354 251.072 155.962 247.463 155.962 243.012V208.518C162.41 211.157 169.364 212.544 176.422 212.544C176.797 212.544 177.172 212.54 177.547 212.532C183.218 212.414 188.795 211.406 194.125 209.537C198.325 208.063 200.536 203.464 199.063 199.263C197.59 195.063 192.99 192.851 188.79 194.325C185.071 195.629 181.175 196.333 177.21 196.416C169.657 196.572 162.239 194.462 155.963 190.419V168.752L176.666 148.18C179.824 145.042 179.84 139.939 176.703 136.782C173.564 133.624 168.461 133.608 165.304 136.745L155.962 146.027V124.232C155.962 119.781 152.354 116.172 147.902 116.172C143.451 116.172 139.842 119.781 139.842 124.232V146.027L130.501 136.746C127.343 133.608 122.241 133.625 119.102 136.782C115.965 139.94 115.981 145.043 119.139 148.181L139.842 168.752V190.42C133.564 194.463 126.141 196.574 118.595 196.416C98.3392 195.993 81.8757 179.282 81.8946 159.165C81.9047 148.31 86.6759 138.025 94.9842 130.945C104.523 122.817 109.993 110.981 109.993 98.4712C109.994 77.729 126.999 60.8536 147.902 60.8536C168.805 60.8536 185.811 77.729 185.811 98.4712C185.811 110.981 191.281 122.817 200.82 130.945C209.128 138.025 213.9 148.31 213.91 159.164C213.914 163.091 213.294 166.964 212.068 170.677C210.673 174.904 212.968 179.462 217.196 180.857C221.422 182.254 225.981 179.958 227.376 175.73C229.143 170.38 230.036 164.801 230.03 159.148C230.016 143.571 223.18 128.819 211.276 118.675Z" fill="black"/>
<path d="M211.276 118.675C205.337 113.615 201.931 106.251 201.931 98.4712C201.931 68.8399 177.694 44.7334 147.902 44.7334C118.111 44.7334 93.8735 68.8399 93.8735 98.4712C93.8735 106.251 90.4677 113.615 84.5291 118.675C72.6251 128.819 65.7889 143.571 65.7744 159.149C65.7611 173.145 71.2114 186.4 81.1213 196.473C91.0207 206.536 104.21 212.239 118.258 212.533C125.705 212.687 133.054 211.297 139.842 208.518V243.012C139.842 247.463 143.451 251.072 147.902 251.072C152.354 251.072 155.962 247.463 155.962 243.012V208.518C162.41 211.157 169.364 212.544 176.422 212.544C176.797 212.544 177.172 212.54 177.547 212.532C183.218 212.414 188.795 211.406 194.125 209.537C198.325 208.063 200.536 203.464 199.063 199.263C197.59 195.063 192.99 192.851 188.79 194.325C185.071 195.629 181.175 196.333 177.21 196.416C169.657 196.572 162.239 194.462 155.963 190.419V168.752L176.666 148.18C179.824 145.042 179.84 139.939 176.703 136.782C173.564 133.624 168.461 133.608 165.304 136.745L155.962 146.027V124.232C155.962 119.781 152.354 116.172 147.902 116.172C143.451 116.172 139.842 119.781 139.842 124.232V146.027L130.501 136.746C127.343 133.608 122.241 133.625 119.102 136.782C115.965 139.94 115.981 145.043 119.139 148.181L139.842 168.752V190.42C133.564 194.463 126.141 196.574 118.595 196.416C98.3392 195.993 81.8757 179.282 81.8946 159.165C81.9047 148.31 86.6759 138.025 94.9842 130.945C104.523 122.817 109.993 110.981 109.993 98.4712C109.994 77.729 126.999 60.8536 147.902 60.8536C168.805 60.8536 185.811 77.729 185.811 98.4712C185.811 110.981 191.281 122.817 200.82 130.945C209.128 138.025 213.9 148.31 213.91 159.164C213.914 163.091 213.294 166.964 212.068 170.677C210.673 174.904 212.968 179.462 217.196 180.857C221.422 182.254 225.981 179.958 227.376 175.73C229.143 170.38 230.036 164.801 230.03 159.148C230.016 143.571 223.18 128.819 211.276 118.675Z" fill="#023D1E"/>
</g>
<defs>
<clipPath id="clip0_960_261">
<rect width="206.338" height="206.338" fill="white" transform="translate(44.7334 44.7334)"/>
</clipPath>
</defs>
</svg>
