<svg fill="none" height="24" viewBox="0 0 24 24" width="24" xmlns="http://www.w3.org/2000/svg"><g fill="rgb(0,0,0)"><path clip-rule="evenodd" d="m10.3094 2.24998h3.3814c.2164-.00014.4049-.00026.5829.02817.7033.11231 1.3119.55096 1.6409 1.18265.0832.15989.1427.33877.211.5441l.1117.3349c.0189.05669.0243.07274.0288.08538.1752.48412.6292.81138 1.1438.82442.0136.00034.0301.0004.0902.0004h3c.4142 0 .75.33579.75.75s-.3358.75-.75.75h-17.0001c-.41421 0-.75-.33579-.75-.75s.33579-.75.75-.75h3.00008c.06005 0 .07662-.00006.09015-.0004.51465-.01304.96868-.34028 1.14379-.8244.00461-.01272.0099-.02843.02889-.0854l.11161-.33487c.06829-.20532.12781-.38424.21107-.54413.32894-.63169.93754-1.07034 1.64084-1.18265.17802-.02843.36657-.02831.58297-.02817zm-1.30125 3.00002c.05151-.10102.09716-.206.13643-.31456.01192-.03296.02362-.06806.03864-.11314l.0998-.29941c.09117-.27351.11217-.3293.13299-.36929.10965-.21056.31252-.35678.54695-.39422.04454-.00711.10404-.00938.39234-.00938h3.2895c.2883 0 .3479.00227.3924.00938.2344.03744.4373.18366.547.39422.0208.03999.0418.09577.1329.36929l.0998.29923.0387.11334c.0393.10856.0849.21352.1364.31454z" fill-rule="evenodd"/><path d="m5.91509 8.45011c-.02755-.4133-.38493-.726-.79823-.69845-.41329.02755-.726.38493-.69845.79823l.46345 6.95171c.0855 1.2828.15456 2.3189.31653 3.132.1684.8453.45482 1.5514 1.04641 2.1048.5916.5535 1.31515.7923 2.1698.9041.82202.1075 1.8604.1075 3.146.1075h.8789c1.2856 0 2.324 0 3.1461-.1075.8546-.1118 1.5782-.3506 2.1698-.9041.5916-.5534.878-1.2595 1.0464-2.1048.162-.8131.231-1.8492.3165-3.132l.4635-6.95171c.0275-.4133-.2852-.77068-.6985-.79823s-.7707.28515-.7982.69845l-.46 6.89909c-.0898 1.3479-.1538 2.2857-.2944 2.9913-.1364.6845-.3267 1.0468-.6001 1.3026-.2734.2557-.6476.4216-1.3396.5121-.7134.0933-1.6534.0948-3.0042.0948h-.7734c-1.3508 0-2.29085-.0015-3.00425-.0948-.692-.0905-1.06616-.2564-1.33957-.5121-.27341-.2558-.46375-.6181-.6001-1.3026-.14056-.7056-.20459-1.6434-.29445-2.9913z"/><path d="m9.42546 10.2537c.41216-.0412.77974.2595.82094.6717l.5 5c.0412.4121-.2595.7797-.6717.8209-.41214.0412-.77967-.2595-.82089-.6717l-.5-5c-.04121-.4121.2595-.7797.67165-.8209z"/><path d="m14.5747 10.2537c.4122.0412.7129.4088.6717.8209l-.5 5c-.0412.4122-.4088.7129-.8209.6717-.4122-.0412-.7129-.4088-.6717-.8209l.5-5c.0412-.4122.4088-.7129.8209-.6717z"/></g></svg>